<svg version="1.1" id="Layer_1" xmlns="http://www.w3.org/2000/svg" xmlns:xlink="http://www.w3.org/1999/xlink" x="0px" y="0px"
	 width="100%" viewBox="0 0 496 496" enable-background="new 0 0 496 496" xml:space="preserve">
<path fill="#000000" opacity="1.000000" stroke="none" 
	d="
M299.538269,256.261871 
	C313.081696,253.441437 313.065094,253.441452 313.053253,239.997192 
	C313.039032,223.832031 313.079590,207.666779 313.024414,191.501801 
	C313.019012,189.917221 313.634583,188.194122 312.272797,186.376892 
	C309.337494,187.611038 306.346527,188.868622 303.124756,190.223221 
	C301.106110,186.472046 301.166229,183.635269 305.121918,181.807724 
	C309.581818,179.747223 313.762238,176.999527 318.414124,175.763702 
	C320.175812,177.662445 319.892334,179.561386 319.894775,181.350388 
	C319.927368,205.173706 319.835632,228.997849 320.028900,252.819733 
	C320.065430,257.317963 318.656250,259.329376 314.120087,260.140442 
	C303.819489,261.982239 293.843140,265.034058 284.515320,269.968811 
	C295.598053,265.736115 306.997528,263.029297 318.858826,262.419861 
	C322.707764,262.222137 324.368500,260.619873 324.990967,256.371796 
	C327.643768,238.266968 331.092773,220.299286 337.321167,202.997513 
	C337.646881,202.092743 337.710449,201.093628 338.068756,199.249817 
	C334.439789,199.249817 331.191559,199.255432 327.943359,199.247925 
	C325.624908,199.242554 324.689789,197.992416 324.736450,195.760742 
	C324.777344,193.807434 324.939758,191.868011 327.469574,191.838959 
	C334.416962,191.759201 341.365845,191.811447 348.048279,191.811447 
	C349.188019,194.387482 348.102539,196.018539 347.541656,197.703445 
	C340.168488,219.853134 334.926758,242.517380 331.380219,265.569916 
	C330.837646,269.096649 329.415283,270.299591 325.903473,270.369904 
	C300.049896,270.887360 276.458710,278.514984 255.380417,293.542572 
	C252.312073,295.730133 250.139847,295.805389 247.000061,293.591217 
	C225.878174,278.695892 202.337830,270.822388 176.465378,270.416992 
	C172.040817,270.347595 171.259384,268.053253 170.742340,264.636627 
	C167.450775,242.886642 162.464722,221.531143 155.781174,200.567337 
	C154.946228,197.948380 153.074432,195.497253 154.136520,191.861649 
	C160.932007,191.861649 167.873230,191.765213 174.809296,191.912140 
	C177.354126,191.966064 177.255173,194.149673 177.287857,196.020233 
	C177.322098,197.980118 176.590332,199.129791 174.444580,199.277100 
	C171.320755,199.491547 168.136566,198.816833 165.187851,199.729095 
	C163.852859,201.380127 164.910156,202.776932 165.368134,204.101974 
	C171.259430,221.146774 174.721298,238.750885 177.218658,256.546692 
	C177.768814,260.467133 179.500778,262.148346 183.172684,262.377655 
	C194.512741,263.085846 205.501053,265.465698 216.212570,269.276642 
	C207.868607,264.835266 198.804565,262.549500 189.718430,260.371277 
	C182.672913,258.682281 182.650589,258.762665 182.651428,251.380234 
	C182.654053,228.215683 182.645157,205.051102 182.688873,181.886627 
	C182.692535,179.942993 182.199066,177.895340 183.593399,175.612946 
	C188.871231,177.441910 193.885803,179.985306 198.671463,182.878510 
	C201.272079,184.450729 200.378464,187.205521 199.756149,189.719269 
	C196.079132,190.237854 193.688278,186.941330 190.317093,186.825104 
	C188.722290,187.842285 189.206863,189.495529 189.204681,190.898727 
	C189.174606,210.230209 189.281799,229.562408 189.132080,248.892715 
	C189.104248,252.487854 190.442062,254.009842 193.816116,254.523453 
	C213.860535,257.574677 230.805176,267.320923 246.462662,279.530579 
	C250.047836,282.326294 252.253296,282.351318 255.798218,279.558594 
	C268.840546,269.283844 282.978027,260.894653 299.538269,256.261871 
z"/>
<path fill="#000000" opacity="1.000000" stroke="none" 
	d="
M245.081726,205.000000 
	C245.102600,196.669373 245.108871,188.838684 245.149628,181.008163 
	C245.178329,175.497116 244.091446,174.393356 238.435730,174.373642 
	C234.770248,174.360870 231.103775,174.426620 227.439377,174.362762 
	C223.661575,174.296951 222.179398,176.170013 223.088943,179.694901 
	C225.414719,188.708221 228.020859,197.650726 230.245773,206.687790 
	C231.170151,210.442383 234.506836,209.115555 236.588654,210.289230 
	C236.126862,218.582687 227.215317,225.904343 217.297180,226.220978 
	C207.396255,226.537079 197.865601,219.260834 196.542587,210.016846 
	C202.193634,210.750168 203.212402,206.847061 204.247513,202.562759 
	C205.809067,196.099442 207.784058,189.736877 209.522079,183.314926 
	C210.257034,180.599258 210.594391,177.971008 209.991272,175.012665 
	C208.969177,169.999298 213.036911,166.190155 218.146530,167.186890 
	C223.131805,168.159348 228.108521,167.670746 233.088287,167.801651 
	C237.606384,167.920425 240.256287,163.589798 244.766129,162.921738 
	C246.929733,162.601242 244.860031,159.341492 243.857254,157.474091 
	C241.739502,153.530472 242.024368,149.631042 245.223251,146.465561 
	C248.305374,143.415649 252.046585,143.238785 255.767761,145.454193 
	C259.933197,147.934082 260.910370,153.105179 258.184692,157.708542 
	C255.403000,162.406494 256.067200,161.661926 260.673981,164.186035 
	C266.366882,167.305267 271.932434,168.329132 278.088745,167.821045 
	C280.068573,167.657639 282.039551,167.366257 284.007568,167.084534 
	C288.681091,166.415527 292.914642,169.525223 292.159393,174.000259 
	C291.125763,180.124710 293.594147,185.398361 294.866486,190.976120 
	C295.790009,195.024689 297.135590,198.976181 298.087402,203.019348 
	C299.047394,207.097351 299.800598,211.187668 305.595825,209.715775 
	C304.555817,218.934113 296.048126,225.884430 286.070282,226.228745 
	C276.235168,226.568161 266.780365,219.327469 265.305023,209.951126 
	C271.048431,210.908447 272.029938,206.894302 273.085114,202.672897 
	C274.899811,195.412750 276.963959,188.215195 278.895142,180.983826 
	C280.220978,176.019073 279.122467,174.469742 274.169067,174.394409 
	C270.337891,174.336151 266.494995,174.566406 262.675720,174.347534 
	C258.994476,174.136566 257.300018,175.954926 257.284332,179.276505 
	C257.206512,195.770523 257.275757,212.265167 257.249329,228.759521 
	C257.246246,230.679916 258.345581,231.789337 259.647614,232.887985 
	C260.408783,233.530243 261.450989,234.153595 261.734253,234.997742 
	C263.801697,241.157928 268.253296,242.595154 274.131256,241.713348 
	C276.233398,241.397995 277.681946,242.312592 277.678986,244.750183 
	C277.675964,247.222488 276.078735,247.876602 274.060242,247.880905 
	C258.899048,247.913132 243.737747,247.919662 228.576569,247.893875 
	C226.407196,247.890182 224.649200,247.353302 224.725021,244.518677 
	C224.796417,241.849380 226.515976,241.698120 228.452988,241.674866 
	C229.952332,241.656860 231.463562,241.538864 232.948959,241.680679 
	C235.777390,241.950653 237.849533,241.192657 238.650528,238.189728 
	C238.818268,237.560822 239.070816,236.765381 239.551102,236.437408 
	C246.608749,231.617935 244.934418,224.295715 245.038055,217.495560 
	C245.098969,213.497742 245.070282,209.498566 245.081726,205.000000 
M279.478821,192.892395 
	C278.601685,198.344315 275.911072,203.458374 276.048157,209.233917 
	C282.651794,209.233917 288.851166,209.233917 295.818970,209.233917 
	C293.641693,200.855713 291.467010,193.087036 289.648682,185.235825 
	C288.748688,181.349884 286.953888,179.821915 282.774323,181.334671 
	C281.790344,184.809662 280.756042,188.462326 279.478821,192.892395 
M226.526688,207.473343 
	C224.502487,199.758514 222.521194,192.031982 220.422195,184.337555 
	C219.931656,182.539322 219.856735,180.331573 216.866882,180.410446 
	C213.842987,180.490234 213.546844,182.478180 212.993439,184.649185 
	C211.474167,190.609344 209.809067,196.532166 208.251678,202.482849 
	C207.684509,204.650009 206.421280,206.776962 207.735062,209.647385 
	C211.082428,209.647385 214.563309,209.867691 218.001373,209.578598 
	C220.819153,209.341660 224.006836,211.007004 226.526688,207.473343 
M252.634918,150.265656 
	C249.818558,148.953140 248.570282,150.341537 248.420959,152.960342 
	C248.320511,154.722626 249.586349,155.810226 251.278809,155.516190 
	C254.293976,154.992355 254.211121,152.977509 252.634918,150.265656 
z"/>
<path fill="#000000" opacity="1.000000" stroke="none" 
	d="
M248.132202,101.313828 
	C249.171509,98.916794 249.239822,96.479576 251.796585,93.917152 
	C252.890823,102.859077 257.326141,106.951317 266.892609,105.040443 
	C259.442047,109.749275 255.799301,115.015327 261.734711,123.262009 
	C256.695770,122.803253 254.926041,118.701691 251.654190,118.224754 
	C247.980347,117.689240 246.297745,122.424423 242.656754,122.724533 
	C242.633499,122.659897 236.558640,105.770370 236.441681,105.445175 
	C238.534195,104.179405 240.888702,104.768616 243.095200,104.729164 
	C245.419861,104.687599 247.464523,104.472267 248.132202,101.313828 
z"/>
<path fill="#000000" opacity="1.000000" stroke="none" 
	d="
M276.188843,109.407715 
	C277.081085,107.327461 277.193970,105.265099 279.652710,103.132240 
	C280.414246,109.747818 284.203461,111.897682 290.550110,111.081940 
	C286.443420,114.813141 282.149323,118.096603 286.802124,124.190407 
	C283.049316,124.502396 281.661224,121.608452 279.305573,121.350937 
	C276.629669,121.058411 275.386841,124.434494 272.512604,124.199524 
	C270.928375,121.599617 274.287659,119.215233 273.020081,116.744133 
	C271.913483,114.586876 268.766357,114.226761 267.898956,111.620995 
	C270.427490,109.563789 273.753143,111.994209 276.188843,109.407715 
z"/>
<path fill="#000000" opacity="1.000000" stroke="none" 
	d="
M229.080841,118.684975 
	C229.286865,120.774269 230.873703,122.293480 229.747040,125.077553 
	C225.606094,120.933983 221.180786,120.096626 216.251450,125.084442 
	C218.733109,119.024132 217.280792,114.789238 211.808884,111.363426 
	C218.201614,111.901443 221.792572,109.411545 223.273941,103.173012 
	C224.847061,109.383881 227.916046,112.582611 234.170975,110.386337 
	C234.085892,114.894196 228.480698,114.446388 229.080841,118.684975 
z"/>
</svg>